<?xml version="1.0" encoding="UTF-8" standalone="no"?>
<!-- Created with Inkscape (http://www.inkscape.org/) -->
<svg
   xmlns:svg="http://www.w3.org/2000/svg"
   xmlns="http://www.w3.org/2000/svg"
   version="1.0"
   width="330"
   height="280"
   viewBox="-1 -1 265 211"
   id="svg2">
  <defs
     id="defs127">
    <marker
       refX="0"
       refY="0"
       orient="auto"
       style="overflow:visible"
       id="Arrow2Lend">
      <path
         d="M 8.7185878,4.0337352 L -2.2072895,0.016013256 L 8.7185884,-4.0017078 C 6.97309,-1.6296469 6.9831476,1.6157441 8.7185878,4.0337352 z "
         transform="matrix(-1.1,0,0,-1.1,-1.1,0)"
         style="font-size:12px;fill-rule:evenodd;stroke-width:0.625;stroke-linejoin:round"
         id="path3280" />
    </marker>
    <marker
       refX="0"
       refY="0"
       orient="auto"
       style="overflow:visible"
       id="TriangleInL">
      <path
         d="M 5.77,0 L -2.88,5 L -2.88,-5 L 5.77,0 z "
         transform="scale(-0.8,-0.8)"
         style="fill-rule:evenodd;stroke:#000000;stroke-width:1pt;marker-start:none"
         id="path3348" />
    </marker>
    <marker
       refX="0"
       refY="0"
       orient="auto"
       style="overflow:visible"
       id="TriangleOutL">
      <path
         d="M 5.77,0 L -2.88,5 L -2.88,-5 L 5.77,0 z "
         transform="scale(0.8,0.8)"
         style="fill-rule:evenodd;stroke:#000000;stroke-width:1pt;marker-start:none"
         id="path3357" />
    </marker>
    <marker
       refX="0"
       refY="0"
       orient="auto"
       style="overflow:visible"
       id="Arrow1Lend">
      <path
         d="M 0,0 L 5,-5 L -12.5,0 L 5,5 L 0,0 z "
         transform="matrix(-0.8,0,0,-0.8,-10,0)"
         style="fill-rule:evenodd;stroke:#000000;stroke-width:1pt;marker-start:none"
         id="path3262" />
    </marker>
  </defs>
  <g
     transform="translate(-2.1051491,-2.3893826)"
     style="font-size:14px;font-family:Times-Roman"
     id="graph0">
    <title
       id="title5">sorted_binary_tree</title>
    <g
       id="node1">
      <title
         id="title8">C</title>
      <ellipse
         cx="60"
         cy="185"
         rx="18"
         ry="18"
         style="fill:#ffffff;stroke:#000000"
         id="ellipse10" />
      <text
         x="60"
         y="190"
         style="text-anchor:middle"
         id="text12">C</text>
    </g>
    <g
       id="node2">
      <title
         id="title15">E</title>
      <ellipse
         cx="132"
         cy="185"
         rx="18"
         ry="18"
         style="fill:#ffffff;stroke:#000000"
         id="ellipse17" />
      <text
         x="132"
         y="190"
         style="text-anchor:middle"
         id="text19">E</text>
    </g>
    <g
       id="node3">
      <title
         id="title22">H</title>
      <ellipse
         cx="204"
         cy="185"
         rx="17"
         ry="18"
         style="fill:#ffffff;stroke:#000000"
         id="ellipse24" />
      <text
         x="204"
         y="190"
         style="text-anchor:middle"
         id="text26">H</text>
    </g>
    <g
       id="node4">
      <title
         id="title29">A</title>
      <ellipse
         cx="24"
         cy="131"
         rx="17"
         ry="18"
         style="fill:#ffffff;stroke:#000000"
         id="ellipse31" />
      <text
         x="24"
         y="136"
         style="text-anchor:middle"
         id="text33">A</text>
    </g>
    <g
       id="node5">
      <title
         id="title36">D</title>
      <ellipse
         cx="96"
         cy="131"
         rx="17"
         ry="18"
         style="fill:#ffffff;stroke:#000000"
         id="ellipse38" />
      <text
         x="96"
         y="136"
         style="text-anchor:middle"
         id="text40">D</text>
    </g>
    <g
       id="edge6">
      <title
         id="title43">D-&gt;C</title>
      <path
         d="M 86,147 C 83,151 79,156 76,161"
         style="fill:none;stroke:#000000"
         id="path45" />
      <polygon
         points="78,164 70,170 73,160 78,164 "
         style="fill:#000000;stroke:#000000"
         id="polygon47" />
    </g>
    <g
       id="edge8">
      <title
         id="title50">D-&gt;E</title>
      <path
         d="M 106,147 C 109,151 113,156 116,161"
         style="fill:none;stroke:#000000"
         id="path52" />
      <polygon
         points="119,160 122,170 114,164 119,160 "
         style="fill:#000000;stroke:#000000"
         id="polygon54" />
    </g>
    <g
       id="node6">
      <title
         id="title57">I</title>
      <ellipse
         cx="240"
         cy="131"
         rx="18"
         ry="18"
         style="fill:#ffffff;stroke:#000000"
         id="ellipse59" />
      <text
         x="240"
         y="136"
         style="text-anchor:middle"
         id="text61">I</text>
    </g>
    <g
       id="edge12">
      <title
         id="title64">I-&gt;H</title>
      <path
         d="M 230,146 C 227,151 224,156 220,161"
         style="fill:none;stroke:#000000"
         id="path66" />
      <polygon
         points="223,163 214,169 217,159 223,163 "
         style="fill:#000000;stroke:#000000"
         id="polygon68" />
    </g>
    <g
       id="node7">
      <title
         id="title71">B</title>
      <ellipse
         cx="60"
         cy="77"
         rx="18"
         ry="18"
         style="fill:#ffffff;stroke:#000000"
         id="ellipse73" />
      <text
         x="60"
         y="82"
         style="text-anchor:middle"
         id="text75">B</text>
    </g>
    <g
       id="edge3">
      <title
         id="title78">B-&gt;A</title>
      <path
         d="M 50,92 C 47,97 44,102 40,107"
         style="fill:none;stroke:#000000"
         id="path80" />
      <polygon
         points="43,109 34,115 37,105 43,109 "
         style="fill:#000000;stroke:#000000"
         id="polygon82" />
    </g>
    <g
       id="edge5">
      <title
         id="title85">B-&gt;D</title>
      <path
         d="M 70,92 C 73,97 76,102 80,107"
         style="fill:none;stroke:#000000"
         id="path87" />
      <polygon
         points="83,105 86,115 77,109 83,105 "
         style="fill:#000000;stroke:#000000"
         id="polygon89" />
    </g>
    <g
       id="node8">
      <title
         id="title92">G</title>
      <ellipse
         cx="204"
         cy="77"
         rx="17"
         ry="18"
         style="fill:#ffffff;stroke:#000000"
         id="ellipse94" />
      <text
         x="204"
         y="82"
         style="text-anchor:middle"
         id="text96">G</text>
    </g>
    <g
       id="edge11">
      <title
         id="title99">G-&gt;I</title>
      <path
         d="M 214,93 C 217,97 221,102 224,107"
         style="fill:none;stroke:#000000"
         id="path101" />
      <polygon
         points="227,106 230,116 222,110 227,106 "
         style="fill:#000000;stroke:#000000"
         id="polygon103" />
    </g>
    <g
       id="node9">
      <title
         id="title106">F</title>
      <ellipse
         cx="132"
         cy="23"
         rx="18"
         ry="18"
         style="fill:#ffffff;stroke:#000000"
         id="ellipse108" />
      <text
         x="132"
         y="28"
         style="text-anchor:middle"
         id="text110">F</text>
    </g>
    <g
       id="edge2">
      <title
         id="title113">F-&gt;B</title>
      <path
         d="M 117,34 C 106,42 94,51 83,60"
         style="fill:none;stroke:#000000"
         id="path115" />
      <polygon
         points="85,63 75,66 81,57 85,63 "
         style="fill:#000000;stroke:#000000"
         id="polygon117" />
    </g>
    <g
       id="edge10">
      <title
         id="title120">F-&gt;G</title>
      <path
         d="M 147,34 C 158,42 170,51 181,60"
         style="fill:none;stroke:#000000"
         id="path122" />
      <polygon
         points="183,57 189,66 179,63 183,57 "
         style="fill:#000000;stroke:#000000"
         id="polygon124" />
    </g>
  </g>
  <g
     id="g2243">
    <path
       d="M 52.21875,93.3125 L 51.40625,96.0625 L 51.40625,96.09375 L 51.125,97.15625 L 51,97.65625 L 51.96875,97.90625 L 52.09375,97.40625 L 52.375,96.34375 L 53.15625,93.59375 L 53.3125,93.09375 L 52.34375,92.8125 L 52.21875,93.3125 z M 50.125,101.03125 L 49.875,102 L 49.21875,104.84375 L 49.21875,104.875 L 49.1875,104.96875 L 49.09375,105.4375 L 50.0625,105.65625 L 50.15625,105.15625 L 50.1875,105.09375 L 50.1875,105.0625 L 50.84375,102.21875 L 51.09375,101.28125 L 51.1875,100.8125 L 50.21875,100.5625 L 50.125,101.03125 z M 48.375,108.875 L 48.0625,110.40625 L 47.625,112.8125 L 47.5625,113.3125 L 48.53125,113.46875 L 48.625,113 L 49.03125,110.59375 L 49.34375,109.0625 L 49.46875,108.59375 L 48.46875,108.375 L 48.375,108.875 z M 46.96875,116.78125 L 46.375,120.65625 L 46.375,120.75 L 46.3125,121.21875 L 47.28125,121.375 L 47.375,120.875 L 47.375,120.8125 L 47.375,120.78125 L 47.96875,116.90625 L 48.03125,116.4375 L 47.03125,116.28125 L 46.96875,116.78125 z M 45.84375,124.71875 L 45.78125,125.34375 L 45.40625,128.6875 L 45.34375,129.1875 L 46.34375,129.28125 L 46.375,128.8125 L 46.78125,125.46875 L 46.78125,125.4375 L 46.84375,124.84375 L 46.90625,124.34375 L 45.90625,124.21875 L 45.84375,124.71875 z M 44.96875,132.65625 L 44.875,133.71875 L 44.5625,136.65625 L 44.5,137.15625 L 45.5,137.25 L 45.53125,136.75 L 45.84375,133.8125 L 45.96875,132.78125 L 46.03125,132.28125 L 45.03125,132.15625 L 44.96875,132.65625 z M 44.125,140.625 L 44.125,140.65625 L 43.71875,143.53125 L 43.71875,143.5625 L 43.53125,144.53125 L 43.4375,145.03125 L 44.4375,145.21875 L 44.53125,144.71875 L 44.71875,143.71875 L 44.71875,143.6875 L 45.09375,140.78125 L 45.125,140.78125 L 45.125,140.71875 L 45.15625,140.21875 L 44.1875,140.125 L 44.125,140.625 z M 28.0625,145 L 28.3125,145.40625 L 29.6875,147.4375 L 29.6875,147.46875 L 30.5,148.75 L 30.78125,149.15625 L 31.625,148.625 L 31.34375,148.21875 L 30.53125,146.90625 L 29.15625,144.84375 L 28.875,144.4375 L 28.0625,145 z M 42.625,148.34375 L 42.40625,148.90625 L 42.375,148.9375 L 42.0625,149.625 L 42.03125,149.6875 L 41.6875,150.21875 L 41.65625,150.28125 L 41.3125,150.71875 L 41.28125,150.75 L 41.25,150.78125 L 40.875,151.09375 L 40.84375,151.125 L 40.78125,151.15625 L 40.5625,151.25 L 40.125,151.5 L 40.625,152.375 L 41.0625,152.125 L 41.375,151.96875 L 41.40625,151.9375 L 41.4375,151.90625 L 41.9375,151.46875 L 41.96875,151.4375 L 42,151.40625 L 42.46875,150.875 L 42.5,150.84375 L 42.5,150.8125 L 42.90625,150.15625 L 42.9375,150.125 L 42.9375,150.09375 L 43.3125,149.34375 L 43.3125,149.3125 L 43.3125,149.28125 L 43.5625,148.6875 L 43.71875,148.21875 L 42.78125,147.875 L 42.625,148.34375 z M 32.625,151.65625 L 33,152.03125 L 33.09375,152.125 L 33.125,152.15625 L 33.15625,152.15625 L 33.75,152.625 L 33.78125,152.65625 L 33.8125,152.65625 L 34.46875,153 L 34.5,153.03125 L 34.5625,153.0625 L 35.28125,153.28125 L 35.3125,153.28125 L 35.375,153.28125 L 36.15625,153.375 L 36.21875,153.40625 L 36.25,153.40625 L 37.03125,153.375 L 37.53125,153.34375 L 37.5,152.34375 L 37,152.375 L 36.28125,152.40625 L 36.25,152.40625 L 36.21875,152.40625 L 35.5625,152.3125 L 35.5,152.3125 L 34.9375,152.125 L 34.84375,152.09375 L 34.28125,151.78125 L 33.8125,151.40625 L 33.75,151.375 L 33.6875,151.3125 L 33.34375,150.96875 L 32.625,151.65625 z "
       style="fill:#000000;fill-opacity:1;fill-rule:evenodd;stroke:none;stroke-width:1;stroke-linecap:square;stroke-linejoin:miter;stroke-miterlimit:4;stroke-dasharray:4.00000004, 4.00000004;stroke-dashoffset:0;stroke-opacity:1"
       id="path2281" />
    <path
       d="M 45.455616,102.14259 L 53.132139,91.893378 L 53.924321,104.67414 C 51.974276,102.08721 48.550729,101.07536 45.455616,102.14259 z "
       style="font-size:12px;fill-rule:evenodd;stroke-width:0.625;stroke-linejoin:round"
       id="path2249" />
  </g>
  <g
     id="g2259">
    <path
       d="M 89.25,149.78125 L 89.125,150.25 L 88.4375,153.09375 L 88.4375,153.125 L 88.3125,153.6875 L 88.21875,154.1875 L 89.1875,154.375 L 89.3125,153.875 L 89.40625,153.34375 L 89.40625,153.3125 L 90.09375,150.5 L 90.21875,150.03125 L 90.34375,149.53125 L 89.375,149.28125 L 89.25,149.78125 z M 87.53125,157.625 L 87.34375,158.625 L 86.90625,161.28125 L 86.90625,161.3125 L 86.875,161.59375 L 86.8125,162.0625 L 87.78125,162.21875 L 87.84375,161.71875 L 87.90625,161.46875 L 87.90625,161.4375 L 88.34375,158.8125 L 88.53125,157.8125 L 88.625,157.3125 L 87.625,157.125 L 87.53125,157.625 z M 86.34375,165.5625 L 85.96875,168.90625 L 85.90625,169.5625 L 85.875,170.0625 L 86.875,170.125 L 86.90625,169.625 L 86.96875,169 L 87.34375,165.6875 L 87.40625,165.1875 L 86.40625,165.0625 L 86.34375,165.5625 z M 85.59375,173.53125 L 85.59375,173.625 L 85.40625,177.5625 L 85.375,178.0625 L 86.375,178.09375 L 86.40625,177.59375 L 86.59375,173.71875 L 86.59375,173.6875 L 86.59375,173.625 L 86.625,173.125 L 85.625,173.03125 L 85.59375,173.53125 z M 85.28125,181.5625 L 85.25,182.25 L 85.25,182.28125 L 85.21875,185.5625 L 85.1875,186.0625 L 86.1875,186.09375 L 86.21875,185.59375 L 86.25,182.28125 L 86.28125,181.59375 L 86.28125,181.09375 L 85.28125,181.0625 L 85.28125,181.5625 z M 85.15625,189.5625 L 85.09375,193.03125 L 85.09375,193.0625 L 85.0625,193.5625 L 85.03125,194.0625 L 86.03125,194.09375 L 86.0625,193.59375 L 86.09375,193.09375 L 86.09375,193.0625 L 86.15625,189.59375 L 86.15625,189.09375 L 85.15625,189.0625 L 85.15625,189.5625 z M 84.8125,197.5 L 84.6875,198.6875 L 84.6875,198.71875 L 84.5,199.875 L 84.5,199.90625 L 84.28125,201 L 84.28125,201.03125 L 84.1875,201.375 L 84.0625,201.875 L 85.03125,202.125 L 85.15625,201.625 L 85.25,201.25 L 85.5,200.09375 L 85.5,200.0625 L 85.6875,198.84375 L 85.6875,198.8125 L 85.8125,197.625 L 85.84375,197.125 L 84.84375,197.03125 L 84.8125,197.5 z M 68.0625,199.625 L 68.3125,200.0625 L 69.53125,202.25 L 70.3125,203.5625 L 70.5625,203.96875 L 71.4375,203.46875 L 71.1875,203.03125 L 70.40625,201.75 L 69.1875,199.59375 L 68.9375,199.15625 L 68.0625,199.625 z M 82.71875,204.875 L 82.34375,205.34375 L 82.3125,205.40625 L 81.78125,205.96875 L 81.75,206 L 81.71875,206.03125 L 80.59375,206.96875 L 80.5625,207 L 80.0625,207.34375 L 80.03125,207.34375 L 79.9375,207.40625 L 79.5,207.65625 L 80,208.53125 L 80.4375,208.28125 L 80.5625,208.21875 L 80.5625,208.1875 L 80.59375,208.1875 L 81.15625,207.78125 L 81.1875,207.78125 L 81.21875,207.75 L 82.40625,206.75 L 82.4375,206.71875 L 82.46875,206.71875 L 83.09375,206.03125 L 83.125,206 L 83.5,205.46875 L 83.8125,205.0625 L 83,204.46875 L 82.71875,204.875 z M 72.375,206.5 L 72.6875,206.875 L 73,207.1875 L 73,207.21875 L 73.03125,207.21875 L 73.78125,207.9375 L 73.8125,207.9375 L 73.84375,207.96875 L 74.65625,208.53125 L 74.6875,208.5625 L 74.71875,208.5625 L 75.59375,208.96875 L 75.625,209 L 75.65625,209 L 76.09375,209.125 L 76.125,209.15625 L 76.15625,209.15625 L 76.28125,209.15625 L 76.78125,209.25 L 76.96875,208.28125 L 76.46875,208.1875 L 76.34375,208.15625 L 76,208.0625 L 75.9375,208.03125 L 75.15625,207.65625 L 74.46875,207.1875 L 74.40625,207.15625 L 73.71875,206.53125 L 73.6875,206.5 L 73.4375,206.1875 L 73.125,205.8125 L 72.375,206.5 z "
       style="fill:#000000;fill-opacity:1;fill-rule:evenodd;stroke:none;stroke-width:1;stroke-linecap:square;stroke-linejoin:miter;stroke-miterlimit:4;stroke-dasharray:4.00000004, 4.00000004;stroke-dashoffset:0;stroke-opacity:1"
       id="path3478" />
    <path
       d="M 83.261611,156.61277 L 90.684889,146.17867 L 91.789761,158.93621 C 89.776961,156.3978 86.329666,155.47008 83.261611,156.61277 z "
       style="font-size:12px;fill-rule:evenodd;stroke-width:0.625;stroke-linejoin:round"
       id="path2265" />
  </g>
  <g
     id="g2267">
    <path
       d="M 96.78125,148.75 L 96.875,149.21875 L 97.625,153.15625 L 97.71875,153.65625 L 98.6875,153.46875 L 98.59375,152.96875 L 97.875,149.03125 L 97.78125,148.5625 L 96.78125,148.75 z M 98.21875,156.59375 L 98.28125,157.09375 L 98.625,159.0625 L 98.59375,159.0625 L 98.90625,161.03125 L 98.96875,161.53125 L 99.96875,161.40625 L 99.875,160.90625 L 99.59375,158.90625 L 99.28125,156.9375 L 99.1875,156.4375 L 98.21875,156.59375 z M 99.375,164.5 L 99.4375,165 L 99.875,168.59375 L 99.90625,168.9375 L 99.96875,169.4375 L 100.96875,169.34375 L 100.90625,168.84375 L 100.875,168.5 L 100.875,168.46875 L 100.4375,164.875 L 100.375,164.375 L 99.375,164.5 z M 100.28125,172.4375 L 100.3125,172.9375 L 100.65625,176.71875 L 100.65625,176.75 L 100.65625,176.90625 L 100.6875,177.40625 L 101.6875,177.34375 L 101.65625,176.84375 L 101.65625,176.65625 L 101.3125,172.84375 L 101.28125,172.34375 L 100.28125,172.4375 z M 100.90625,180.40625 L 100.9375,180.875 L 101.125,183.625 L 101.21875,184.875 L 101.25,185.375 L 102.25,185.3125 L 102.21875,184.8125 L 102.125,183.5625 L 101.9375,180.8125 L 101.90625,180.3125 L 100.90625,180.40625 z M 101.46875,188.375 L 101.5,188.875 L 101.53125,189.40625 L 101.53125,189.4375 L 101.75,191.96875 L 101.875,192.875 L 101.90625,193.375 L 102.90625,193.25 L 102.84375,192.75 L 102.75,191.875 L 102.75,191.84375 L 102.53125,189.34375 L 102.5,188.8125 L 102.46875,188.3125 L 101.46875,188.375 z M 102.375,196.40625 L 102.5,196.875 L 102.84375,198.375 L 102.84375,198.40625 L 103.40625,200.1875 L 103.4375,200.1875 L 103.4375,200.21875 L 103.65625,200.78125 L 103.875,201.25 L 104.78125,200.875 L 104.59375,200.40625 L 104.375,199.875 L 104.34375,199.84375 L 103.8125,198.15625 L 103.78125,198.09375 L 103.46875,196.65625 L 103.34375,196.15625 L 102.375,196.40625 z M 120.71875,199.59375 L 119.6875,201.40625 L 119.65625,201.4375 L 118.625,202.9375 L 118.34375,203.34375 L 119.1875,203.90625 L 119.46875,203.5 L 120.5,201.96875 L 120.53125,201.96875 L 120.53125,201.9375 L 121.59375,200.09375 L 121.84375,199.65625 L 120.96875,199.15625 L 120.71875,199.59375 z M 105.40625,203.9375 L 105.6875,204.34375 L 105.9375,204.65625 L 105.9375,204.6875 L 105.96875,204.6875 L 106.875,205.78125 L 106.90625,205.8125 L 106.9375,205.84375 L 107.875,206.71875 L 107.90625,206.75 L 107.9375,206.75 L 108.65625,207.25 L 109.0625,207.53125 L 109.65625,206.71875 L 109.21875,206.4375 L 108.5625,205.96875 L 108.5,205.9375 L 107.65625,205.125 L 106.75,204.09375 L 106.71875,204.0625 L 106.53125,203.78125 L 106.25,203.375 L 105.40625,203.9375 z M 116,205.71875 L 115.40625,206.1875 L 115.375,206.21875 L 114.90625,206.53125 L 114.875,206.53125 L 114.375,206.78125 L 114.34375,206.8125 L 113.875,207 L 113.84375,207.03125 L 113.375,207.15625 L 113.3125,207.1875 L 112.875,207.28125 L 112.8125,207.28125 L 112.6875,207.28125 L 112.1875,207.34375 L 112.3125,208.34375 L 112.78125,208.28125 L 112.96875,208.25 L 113,208.25 L 113.03125,208.25 L 113.5625,208.15625 L 113.59375,208.125 L 113.625,208.125 L 114.1875,207.96875 L 114.1875,207.9375 L 114.21875,207.9375 L 114.78125,207.71875 L 114.8125,207.6875 L 115.375,207.40625 L 115.40625,207.40625 L 115.9375,207.0625 L 115.96875,207.03125 L 116,207.03125 L 116.625,206.53125 L 117.03125,206.21875 L 116.40625,205.4375 L 116,205.71875 z "
       style="fill:#000000;fill-opacity:1;fill-rule:evenodd;stroke:none;stroke-width:1;stroke-linecap:square;stroke-linejoin:miter;stroke-miterlimit:4;stroke-dasharray:4.00000004, 4.00000004;stroke-dashoffset:0;stroke-opacity:1"
       id="path3480" />
    <path
       d="M 94.873725,159.218 L 96.862444,146.56808 L 103.54271,157.4928 C 100.60887,156.11896 97.109762,156.82659 94.873725,159.218 z "
       style="font-size:12px;fill-rule:evenodd;stroke-width:0.625;stroke-linejoin:round"
       id="path2273" />
  </g>
  <g
     id="g2275">
    <path
       d="M 235.875,147.3125 L 235.84375,147.5 L 235.8125,148 L 236.8125,148.0625 L 236.84375,147.5625 L 236.875,147.375 L 236.90625,146.875 L 235.90625,146.8125 L 235.875,147.3125 z M 235.59375,151.5 L 235.3125,155.46875 L 235.28125,155.96875 L 236.28125,156.03125 L 236.3125,155.53125 L 236.5625,151.5625 L 236.625,151.0625 L 235.625,151 L 235.59375,151.5 z M 235.03125,159.46875 L 234.6875,163.4375 L 234.65625,163.9375 L 235.65625,164.03125 L 235.6875,163.53125 L 236.03125,159.53125 L 236.0625,159.03125 L 235.0625,158.96875 L 235.03125,159.46875 z M 234.34375,167.4375 L 234.1875,168.9375 L 233.9375,171.40625 L 233.875,171.90625 L 234.875,172 L 234.9375,171.5 L 235.1875,169.03125 L 235.34375,167.53125 L 235.375,167.03125 L 234.375,166.9375 L 234.34375,167.4375 z M 233.5,175.375 L 233.1875,177.78125 L 233,179.3125 L 232.90625,179.8125 L 233.90625,179.96875 L 233.96875,179.46875 L 234.1875,177.90625 L 234.46875,175.5 L 234.53125,175 L 233.5625,174.875 L 233.5,175.375 z M 232.4375,183.28125 L 232.09375,185.375 L 231.78125,187.21875 L 231.6875,187.71875 L 232.65625,187.875 L 232.75,187.375 L 233.09375,185.53125 L 233.40625,183.4375 L 233.5,182.9375 L 232.5,182.78125 L 232.4375,183.28125 z M 231.03125,191.125 L 230.90625,191.75 L 230.90625,191.78125 L 230.25,194.53125 L 230.125,195 L 230,195.46875 L 230.96875,195.75 L 231.09375,195.25 L 231.21875,194.78125 L 231.21875,194.75 L 231.875,191.96875 L 232,191.3125 L 232.09375,190.84375 L 231.125,190.625 L 231.03125,191.125 z M 210,198.375 L 210.3125,198.78125 L 211.53125,200.5 L 211.53125,200.53125 L 211.5625,200.53125 L 212.6875,202 L 213,202.40625 L 213.78125,201.8125 L 213.46875,201.40625 L 212.34375,199.9375 L 212.34375,199.90625 L 211.09375,198.1875 L 210.8125,197.8125 L 210,198.375 z M 229,198.8125 L 228.875,199.21875 L 228.1875,201.125 L 228.15625,201.15625 L 227.5625,202.46875 L 227.375,202.9375 L 228.28125,203.34375 L 228.5,202.875 L 229.09375,201.53125 L 229.09375,201.5 L 229.84375,199.53125 L 229.96875,199.125 L 230.125,198.625 L 229.15625,198.34375 L 229,198.8125 z M 215.03125,204.71875 L 215.375,205.0625 L 216.28125,205.90625 L 216.28125,205.9375 L 217.375,206.84375 L 217.40625,206.875 L 217.4375,206.875 L 218.5,207.59375 L 218.53125,207.625 L 218.59375,207.65625 L 219.03125,207.90625 L 219.5,207 L 219.0625,206.78125 L 219,206.75 L 218.03125,206.09375 L 218,206.0625 L 216.96875,205.1875 L 216.9375,205.15625 L 216.09375,204.34375 L 215.71875,204 L 215.03125,204.71875 z M 225.5625,205.75 L 225.125,206.25 L 225.09375,206.28125 L 225.0625,206.3125 L 224.3125,206.9375 L 224.25,207 L 223.90625,207.1875 L 223.875,207.21875 L 223.5,207.40625 L 223.46875,207.4375 L 223.09375,207.5625 L 223.0625,207.5625 L 222.6875,207.65625 L 222.625,207.65625 L 222.5625,207.65625 L 222.0625,207.71875 L 222.1875,208.71875 L 222.6875,208.65625 L 222.8125,208.65625 L 222.84375,208.65625 L 222.875,208.625 L 223.34375,208.53125 L 223.375,208.53125 L 223.40625,208.5 L 223.84375,208.34375 L 223.875,208.34375 L 223.90625,208.3125 L 224.34375,208.09375 L 224.375,208.09375 L 224.40625,208.0625 L 224.84375,207.78125 L 224.875,207.78125 L 224.90625,207.75 L 225.75,207.03125 L 225.78125,207 L 225.8125,206.96875 L 226.3125,206.40625 L 226.65625,206.03125 L 225.875,205.375 L 225.5625,205.75 z "
       style="fill:#000000;fill-opacity:1;fill-rule:evenodd;stroke:none;stroke-width:1;stroke-linecap:square;stroke-linejoin:miter;stroke-miterlimit:4;stroke-dasharray:4.00000004, 4.00000004;stroke-dashoffset:0;stroke-opacity:1"
       id="path3482" />
    <path
       d="M 231.29403,157.75518 L 236.42552,146.02303 L 240.11715,158.28465 C 237.62758,156.21175 234.0634,156.00895 231.29403,157.75518 z "
       style="font-size:12px;fill-rule:evenodd;stroke-width:0.625;stroke-linejoin:round"
       id="path2282" />
  </g>
  <g
     id="g2292">
    <path
       d="M 124.03125,42.75 L 123.75,44.125 L 123.34375,46.71875 L 123.25,47.21875 L 124.25,47.375 L 124.3125,46.875 L 124.75,44.3125 L 125,42.9375 L 125.09375,42.46875 L 124.125,42.28125 L 124.03125,42.75 z M 122.71875,50.6875 L 122.375,53.25 L 122.21875,54.65625 L 122.15625,55.15625 L 123.15625,55.28125 L 123.21875,54.78125 L 123.375,53.375 L 123.71875,50.8125 L 123.78125,50.3125 L 122.8125,50.1875 L 122.71875,50.6875 z M 121.8125,58.65625 L 121.5625,61.875 L 121.53125,62.65625 L 121.5,63.15625 L 122.5,63.21875 L 122.53125,62.71875 L 122.5625,61.9375 L 122.8125,58.75 L 122.84375,58.25 L 121.875,58.15625 L 121.8125,58.65625 z M 121.375,66.6875 L 121.3125,70.03125 L 121.3125,70.0625 L 121.3125,70.6875 L 121.34375,71.1875 L 122.34375,71.1875 L 122.3125,70.6875 L 122.3125,70.0625 L 122.3125,70.03125 L 122.375,66.6875 L 122.375,66.1875 L 121.375,66.1875 L 121.375,66.6875 z M 121.375,74.21875 L 121.40625,74.71875 L 121.5625,77.78125 L 121.5625,77.8125 L 121.65625,78.71875 L 121.6875,79.21875 L 122.6875,79.125 L 122.65625,78.625 L 122.5625,77.75 L 122.5625,77.71875 L 122.40625,74.65625 L 122.375,74.15625 L 121.375,74.21875 z M 121.96875,82.21875 L 122.03125,82.71875 L 122.3125,85.1875 L 122.3125,85.21875 L 122.53125,86.6875 L 122.625,87.1875 L 123.59375,87.03125 L 123.53125,86.53125 L 123.3125,85.0625 L 123,82.59375 L 122.96875,82.09375 L 121.96875,82.21875 z M 123.125,90.15625 L 123.21875,90.65625 L 123.5,92.28125 L 124.03125,94.59375 L 124.125,95.0625 L 125.09375,94.875 L 125,94.375 L 124.5,92.09375 L 124.5,92.0625 L 124.1875,90.46875 L 124.09375,89.96875 L 123.125,90.15625 z M 124.84375,98 L 124.96875,98.5 L 125.125,99.0625 L 125.125,99.09375 L 126.09375,102.34375 L 126.21875,102.84375 L 127.1875,102.5625 L 127.03125,102.0625 L 126.09375,98.8125 L 125.9375,98.25 L 125.8125,97.75 L 124.84375,98 z M 127.15625,105.71875 L 127.34375,106.1875 L 128.28125,108.875 L 128.71875,109.9375 L 128.875,110.40625 L 129.8125,110.0625 L 129.65625,109.59375 L 129.21875,108.53125 L 129.21875,108.5 L 128.28125,105.84375 L 128.09375,105.375 L 127.15625,105.71875 z M 130,113.21875 L 130.1875,113.6875 L 130.8125,115.1875 L 130.84375,115.1875 L 131.8125,117.34375 L 132,117.8125 L 132.90625,117.40625 L 132.71875,116.9375 L 131.75,114.78125 L 131.125,113.28125 L 130.9375,112.84375 L 130,113.21875 z M 133.28125,120.53125 L 133.5,121 L 133.65625,121.375 L 133.6875,121.375 L 135.1875,124.4375 L 135.21875,124.4375 L 135.28125,124.59375 L 135.5,125.03125 L 136.40625,124.5625 L 136.15625,124.125 L 136.09375,124 L 136.09375,123.96875 L 134.5625,120.9375 L 134.40625,120.5625 L 134.1875,120.125 L 133.28125,120.53125 z M 136.90625,127.6875 L 137.15625,128.125 L 138.4375,130.53125 L 138.46875,130.53125 L 139.09375,131.65625 L 139.3125,132.09375 L 140.1875,131.59375 L 139.9375,131.15625 L 139.3125,130.0625 L 139.34375,130.0625 L 138.03125,127.65625 L 137.78125,127.21875 L 136.90625,127.6875 z M 140.8125,134.6875 L 141.0625,135.125 L 143.09375,138.59375 L 143.34375,139 L 144.21875,138.5 L 143.96875,138.0625 L 141.9375,134.625 L 141.6875,134.1875 L 140.8125,134.6875 z M 144.90625,141.59375 L 145.15625,142 L 147.25,145.4375 L 147.5,145.84375 L 148.375,145.34375 L 148.09375,144.90625 L 146.03125,141.5 L 145.75,141.0625 L 144.90625,141.59375 z M 149.09375,148.40625 L 149.375,148.84375 L 151.4375,152.125 L 151.4375,152.15625 L 151.46875,152.21875 L 151.71875,152.65625 L 152.59375,152.125 L 152.3125,151.71875 L 152.28125,151.625 L 150.21875,148.3125 L 149.9375,147.875 L 149.09375,148.40625 z M 153.21875,155.21875 L 153.4375,155.65625 L 153.8125,156.34375 L 154.875,158.46875 L 154.84375,158.46875 L 155.1875,159.21875 L 155.40625,159.6875 L 156.3125,159.28125 L 156.09375,158.8125 L 155.78125,158.0625 L 155.75,158.0625 L 155.75,158.03125 L 154.71875,155.875 L 154.6875,155.875 L 154.34375,155.1875 L 154.09375,154.75 L 153.21875,155.21875 z M 156.53125,162.40625 L 156.71875,162.875 L 157.4375,164.9375 L 157.4375,164.96875 L 157.96875,166.65625 L 158.125,167.125 L 159.0625,166.84375 L 158.9375,166.34375 L 158.375,164.65625 L 158.375,164.625 L 157.65625,162.5625 L 157.46875,162.0625 L 156.53125,162.40625 z M 158.90625,170 L 159,170.46875 L 159.25,171.46875 L 159.6875,173.59375 L 159.6875,173.625 L 159.8125,174.375 L 159.90625,174.875 L 160.875,174.6875 L 160.8125,174.1875 L 160.65625,173.4375 L 160.21875,171.25 L 159.96875,170.25 L 159.875,169.75 L 158.90625,170 z M 160.34375,177.78125 L 160.40625,178.28125 L 160.5625,179.9375 L 160.71875,181.96875 L 160.71875,182 L 160.75,182.25 L 160.78125,182.75 L 161.78125,182.6875 L 161.75,182.1875 L 161.71875,181.9375 L 161.71875,181.90625 L 161.5625,179.84375 L 161.375,178.1875 L 161.34375,177.6875 L 160.34375,177.78125 z M 160.84375,186.21875 L 160.84375,187.84375 L 160.84375,187.875 L 160.75,189.71875 L 160.71875,190.1875 L 160.6875,190.6875 L 161.6875,190.75 L 161.71875,190.25 L 161.75,189.78125 L 161.84375,187.90625 L 161.84375,187.875 L 161.84375,186.21875 L 161.875,185.71875 L 160.875,185.71875 L 160.84375,186.21875 z M 160.3125,194.125 L 160.21875,194.90625 L 159.9375,196.46875 L 159.9375,196.5 L 159.625,197.96875 L 159.625,198 L 159.5,198.5 L 160.46875,198.75 L 160.59375,198.25 L 160.59375,198.21875 L 160.59375,198.1875 L 160.90625,196.6875 L 160.90625,196.65625 L 160.9375,196.65625 L 161.1875,195.0625 L 161.1875,195.03125 L 161.3125,194.25 L 161.375,193.78125 L 160.375,193.625 L 160.3125,194.125 z M 139,197.4375 L 139.28125,197.875 L 140.75,200.1875 L 140.75,200.21875 L 141.4375,201.25 L 141.71875,201.65625 L 142.53125,201.125 L 142.25,200.6875 L 141.5625,199.65625 L 141.59375,199.65625 L 140.125,197.34375 L 139.875,196.90625 L 139,197.4375 z M 158.5,201.8125 L 158.46875,201.90625 L 158.46875,201.9375 L 158.03125,203 L 158,203.03125 L 157.5625,204 L 157.53125,204.03125 L 157.0625,204.90625 L 157.03125,204.9375 L 156.8125,205.28125 L 156.53125,205.6875 L 157.34375,206.25 L 157.625,205.8125 L 157.875,205.4375 L 157.90625,205.4375 L 157.90625,205.40625 L 158.40625,204.5 L 158.4375,204.5 L 158.4375,204.46875 L 158.9375,203.4375 L 158.9375,203.40625 L 159.40625,202.28125 L 159.40625,202.25 L 159.4375,202.125 L 159.625,201.65625 L 158.65625,201.34375 L 158.5,201.8125 z M 143.46875,204.15625 L 143.75,204.53125 L 144.15625,205.0625 L 144.1875,205.0625 L 145.125,206.15625 L 145.15625,206.15625 L 145.15625,206.1875 L 146.15625,207.125 L 146.15625,207.15625 L 146.1875,207.15625 L 146.59375,207.5 L 147,207.8125 L 147.625,207.03125 L 147.21875,206.71875 L 146.84375,206.40625 L 146.8125,206.375 L 145.875,205.46875 L 144.9375,204.4375 L 144.9375,204.40625 L 144.5625,203.9375 L 144.25,203.53125 L 143.46875,204.15625 z M 154.0625,207.78125 L 153.6875,207.96875 L 153.65625,208 L 153.0625,208.21875 L 152.5625,208.375 L 152.5,208.375 L 152,208.46875 L 151.9375,208.46875 L 151.46875,208.5 L 151.4375,208.5 L 151.40625,208.5 L 150.9375,208.46875 L 150.875,208.46875 L 150.53125,208.40625 L 150.03125,208.34375 L 149.875,209.3125 L 150.375,209.40625 L 150.78125,209.46875 L 150.8125,209.46875 L 151.40625,209.5 L 151.4375,209.5 L 151.46875,209.5 L 152.0625,209.46875 L 152.09375,209.46875 L 152.125,209.46875 L 152.71875,209.34375 L 152.75,209.34375 L 152.78125,209.34375 L 153.375,209.15625 L 153.40625,209.15625 L 153.4375,209.15625 L 154.0625,208.90625 L 154.09375,208.90625 L 154.125,208.875 L 154.53125,208.65625 L 154.96875,208.4375 L 154.5,207.53125 L 154.0625,207.78125 z "
       style="fill:#000000;fill-opacity:1;fill-rule:evenodd;stroke:none;stroke-width:1;stroke-linecap:square;stroke-linejoin:miter;stroke-miterlimit:4;stroke-dasharray:4.00000004, 4.00000004;stroke-dashoffset:0;stroke-opacity:1"
       id="path3484" />
    <path
       d="M 118.66449,49.042252 L 125.42637,38.167861 L 127.32032,50.832315 C 125.15396,48.423628 121.65577,47.711483 118.66449,49.042252 z "
       style="font-size:12px;fill-rule:evenodd;stroke-width:0.625;stroke-linejoin:round"
       id="path2298" />
  </g>
  <g
     id="g2300">
    <path
       d="M 136.15625,39.1875 L 136.34375,39.65625 L 137.5625,42.625 L 137.75,43.09375 L 138.6875,42.71875 L 138.5,42.25 L 137.28125,39.28125 L 137.09375,38.8125 L 136.15625,39.1875 z M 138.875,45.875 L 139.0625,46.34375 L 140.59375,50.0625 L 140.78125,50.5 L 141.6875,50.125 L 141.5,49.65625 L 140,45.96875 L 139.8125,45.5 L 138.875,45.875 z M 141.90625,53.28125 L 142.09375,53.75 L 142.84375,55.59375 L 143.625,57.4375 L 143.8125,57.90625 L 144.71875,57.53125 L 144.53125,57.0625 L 143.78125,55.21875 L 143.78125,55.1875 L 143.03125,53.375 L 142.84375,52.90625 L 141.90625,53.28125 z M 144.9375,60.6875 L 145.125,61.15625 L 146.03125,63.28125 L 146.03125,63.3125 L 146.6875,64.84375 L 146.875,65.3125 L 147.78125,64.90625 L 147.59375,64.46875 L 146.9375,62.90625 L 146.0625,60.78125 L 145.875,60.3125 L 144.9375,60.6875 z M 148.0625,68.0625 L 148.25,68.53125 L 149.15625,70.6875 L 149.84375,72.21875 L 150.03125,72.65625 L 150.96875,72.25 L 150.75,71.8125 L 150.09375,70.28125 L 149.15625,68.125 L 148.96875,67.6875 L 148.0625,68.0625 z M 151.28125,75.40625 L 151.5,75.84375 L 152.3125,77.65625 L 153.1875,79.46875 L 153.40625,79.9375 L 154.3125,79.5 L 154.09375,79.0625 L 153.21875,77.21875 L 152.40625,75.4375 L 152.1875,75 L 151.28125,75.40625 z M 154.75,82.625 L 154.96875,83.0625 L 155.46875,84.0625 L 156.84375,86.625 L 157.09375,87.0625 L 157.96875,86.59375 L 157.75,86.15625 L 156.375,83.59375 L 155.875,82.625 L 155.65625,82.1875 L 154.75,82.625 z M 158.59375,89.6875 L 158.875,90.125 L 160.28125,92.375 L 160.3125,92.375 L 161.0625,93.5 L 161.34375,93.90625 L 162.15625,93.34375 L 161.875,92.90625 L 161.125,91.84375 L 161.125,91.8125 L 159.71875,89.59375 L 159.46875,89.15625 L 158.59375,89.6875 z M 191.6875,90.84375 L 190.59375,92.4375 L 189.53125,93.875 L 189.53125,93.90625 L 189.375,94.09375 L 189.0625,94.46875 L 189.875,95.09375 L 190.15625,94.71875 L 190.3125,94.5 L 190.34375,94.5 L 191.40625,93.03125 L 191.40625,93 L 192.5,91.4375 L 192.78125,91 L 191.96875,90.4375 L 191.6875,90.84375 z M 163.15625,96.34375 L 163.4375,96.71875 L 163.5625,96.875 L 163.59375,96.90625 L 165.25,98.78125 L 165.25,98.8125 L 165.28125,98.8125 L 166.09375,99.65625 L 166.125,99.65625 L 166.125,99.6875 L 166.1875,99.75 L 166.5625,100.09375 L 167.25,99.34375 L 166.875,99 L 166.8125,98.96875 L 166.8125,98.9375 L 166,98.125 L 165.96875,98.09375 L 164.375,96.28125 L 164.34375,96.25 L 164.25,96.125 L 163.9375,95.71875 L 163.15625,96.34375 z M 186.84375,97.125 L 186.40625,97.59375 L 185.4375,98.59375 L 185.40625,98.625 L 184.4375,99.5 L 184.40625,99.53125 L 184,99.84375 L 183.625,100.15625 L 184.25,100.9375 L 184.65625,100.625 L 185.0625,100.28125 L 185.09375,100.28125 L 186.09375,99.34375 L 186.125,99.3125 L 187.125,98.28125 L 187.15625,98.28125 L 187.59375,97.8125 L 187.90625,97.4375 L 187.1875,96.75 L 186.84375,97.125 z M 168.96875,102 L 169.375,102.28125 L 169.59375,102.4375 L 169.625,102.4375 L 170.5,102.9375 L 170.53125,102.96875 L 171.40625,103.375 L 171.4375,103.40625 L 172.3125,103.75 L 172.34375,103.75 L 173.15625,104 L 173.625,104.125 L 173.90625,103.1875 L 173.4375,103.03125 L 172.6875,102.8125 L 172.625,102.78125 L 171.8125,102.46875 L 171.78125,102.46875 L 171,102.0625 L 170.96875,102.0625 L 170.15625,101.59375 L 170.125,101.5625 L 169.9375,101.46875 L 169.53125,101.1875 L 168.96875,102 z M 180.78125,102.03125 L 180.59375,102.15625 L 180.5625,102.15625 L 179.625,102.5625 L 179.625,102.59375 L 178.75,102.875 L 177.875,103.125 L 177.8125,103.125 L 177.15625,103.25 L 176.6875,103.3125 L 176.84375,104.3125 L 177.34375,104.21875 L 178.03125,104.125 L 178.0625,104.09375 L 179.03125,103.84375 L 179.0625,103.84375 L 180,103.5 L 180.03125,103.5 L 181,103.0625 L 181.03125,103.0625 L 181.03125,103.03125 L 181.28125,102.90625 L 181.71875,102.6875 L 181.21875,101.8125 L 180.78125,102.03125 z "
       style="fill:#000000;fill-opacity:1;fill-rule:evenodd;stroke:none;stroke-width:1;stroke-linecap:square;stroke-linejoin:miter;stroke-miterlimit:4;stroke-dasharray:4.00000004, 4.00000004;stroke-dashoffset:0;stroke-opacity:1"
       id="path3486" />
    <path
       d="M 136.79963,51.046625 L 136.28499,38.251681 L 144.9662,47.665083 C 141.82087,46.889331 138.52675,48.265305 136.79963,51.046625 z "
       style="font-size:12px;fill-rule:evenodd;stroke-width:0.625;stroke-linejoin:round"
       id="path2306" />
  </g>
  <g
     id="g2251">
    <path
       d="M 60.125,92.4375 L 60.1875,92.9375 L 60.5,94.90625 L 60.59375,95.40625 L 61.5625,95.25 L 61.5,94.75 L 61.1875,92.78125 L 61.09375,92.28125 L 60.125,92.4375 z M 61.03125,98.375 L 61.125,98.84375 L 61.65625,102.8125 L 61.71875,103.3125 L 62.71875,103.1875 L 62.625,102.6875 L 62.09375,98.71875 L 62.03125,98.21875 L 61.03125,98.375 z M 62.03125,106.28125 L 62.09375,106.78125 L 62.21875,107.9375 L 62.46875,110.75 L 62.5,111.25 L 63.5,111.15625 L 63.46875,110.65625 L 63.21875,107.84375 L 63.09375,106.6875 L 63.03125,106.1875 L 62.03125,106.28125 z M 62.6875,114.21875 L 62.71875,114.71875 L 62.8125,116.46875 L 62.8125,116.5 L 62.875,118.71875 L 62.90625,119.21875 L 63.90625,119.1875 L 63.875,118.6875 L 63.8125,116.46875 L 63.8125,116.4375 L 63.71875,114.6875 L 63.6875,114.1875 L 62.6875,114.21875 z M 62.90625,122.6875 L 62.90625,123.96875 L 62.90625,124 L 62.78125,126.6875 L 62.75,127.1875 L 63.75,127.21875 L 63.78125,126.71875 L 63.90625,124 L 63.90625,122.6875 L 63.90625,122.1875 L 62.90625,122.1875 L 62.90625,122.6875 z M 62.46875,130.625 L 62.15625,133.375 L 62.15625,133.40625 L 61.9375,134.5625 L 61.875,135.0625 L 62.84375,135.21875 L 62.9375,134.71875 L 63.125,133.5625 L 63.125,133.53125 L 63.46875,130.75 L 63.53125,130.25 L 62.53125,130.125 L 62.46875,130.625 z M 61.1875,138.46875 L 61.15625,138.5625 L 61.15625,138.59375 L 60.5625,140.875 L 60.09375,142.25 L 59.96875,142.75 L 60.90625,143.03125 L 61.0625,142.5625 L 61.5,141.15625 L 61.53125,141.15625 L 62.125,138.8125 L 62.15625,138.8125 L 62.15625,138.6875 L 62.28125,138.1875 L 61.28125,137.96875 L 61.1875,138.46875 z M 58.6875,145.9375 L 58.34375,146.6875 L 58.3125,146.71875 L 57.5,148.3125 L 57.46875,148.34375 L 56.84375,149.40625 L 56.5625,149.84375 L 57.4375,150.34375 L 57.6875,149.9375 L 58.34375,148.8125 L 58.375,148.78125 L 59.21875,147.15625 L 59.21875,147.125 L 59.25,147.125 L 59.59375,146.34375 L 59.78125,145.875 L 58.875,145.46875 L 58.6875,145.9375 z M 54.5625,152.59375 L 53.78125,153.46875 L 53.75,153.5 L 52.8125,154.5 L 52.78125,154.53125 L 51.8125,155.4375 L 51.46875,155.78125 L 52.15625,156.5 L 52.5,156.15625 L 53.5,155.21875 L 54.5,154.1875 L 54.5,154.15625 L 54.53125,154.15625 L 55.3125,153.25 L 55.625,152.875 L 54.875,152.21875 L 54.5625,152.59375 z M 48.75,157.90625 L 47.09375,159.125 L 45.5,160.25 L 45.09375,160.53125 L 45.6875,161.34375 L 46.09375,161.0625 L 47.6875,159.9375 L 49.34375,158.71875 L 49.75,158.4375 L 49.15625,157.625 L 48.75,157.90625 z M 42.4375,162.875 L 41.8125,163.46875 L 41.78125,163.46875 L 39.8125,165.40625 L 39.78125,165.40625 L 39.53125,165.6875 L 39.1875,166.03125 L 39.90625,166.75 L 40.25,166.375 L 40.5,166.125 L 42.46875,164.21875 L 42.5,164.1875 L 43.125,163.625 L 43.46875,163.28125 L 42.8125,162.5625 L 42.4375,162.875 z M 36.78125,168.59375 L 36.28125,169.125 L 36.28125,169.15625 L 34.75,170.9375 L 34.71875,170.9375 L 34.15625,171.65625 L 33.84375,172.0625 L 34.625,172.6875 L 34.9375,172.28125 L 35.5,171.59375 L 35.5,171.5625 L 37.03125,169.8125 L 37.03125,169.78125 L 37.5,169.28125 L 37.84375,168.90625 L 37.09375,168.21875 L 36.78125,168.59375 z M 31.71875,174.90625 L 30.9375,176.0625 L 30.9375,176.09375 L 30.90625,176.09375 L 29.9375,177.6875 L 29.90625,177.71875 L 29.59375,178.3125 L 29.34375,178.75 L 30.21875,179.25 L 30.4375,178.8125 L 30.78125,178.21875 L 31.78125,176.625 L 31.75,176.625 L 32.5625,175.46875 L 32.84375,175.03125 L 32,174.46875 L 31.71875,174.90625 z M 27.78125,181.9375 L 27.625,182.34375 L 27.59375,182.34375 L 27.59375,182.375 L 27.0625,183.8125 L 27.0625,183.84375 L 26.625,185.21875 L 26.625,185.25 L 26.46875,185.8125 L 26.34375,186.28125 L 27.3125,186.53125 L 27.4375,186.03125 L 27.59375,185.5 L 27.5625,185.5 L 28,184.15625 L 28,184.125 L 28.53125,182.75 L 28.53125,182.71875 L 28.6875,182.34375 L 28.90625,181.875 L 27.96875,181.46875 L 27.78125,181.9375 z M 25.84375,189.84375 L 25.78125,190.53125 L 25.78125,190.5625 L 25.8125,191.75 L 25.8125,191.78125 L 25.875,192.90625 L 25.875,192.9375 L 26.03125,193.9375 L 26.09375,194.40625 L 27.09375,194.28125 L 27,193.78125 L 26.875,192.84375 L 26.875,192.8125 L 26.8125,191.71875 L 26.8125,191.6875 L 26.78125,190.5625 L 26.78125,190.53125 L 26.8125,189.90625 L 26.84375,189.40625 L 25.84375,189.34375 L 25.84375,189.84375 z M 26.96875,197.40625 L 27.15625,197.875 L 27.28125,198.21875 L 27.3125,198.21875 L 27.75,199.125 L 27.75,199.15625 L 28.21875,200.03125 L 28.25,200.0625 L 28.75,200.875 L 28.75,200.90625 L 28.78125,200.90625 L 29.1875,201.46875 L 29.46875,201.875 L 30.28125,201.28125 L 29.96875,200.875 L 29.59375,200.34375 L 29.59375,200.3125 L 29.09375,199.5625 L 29.09375,199.53125 L 28.65625,198.71875 L 28.625,198.6875 L 28.21875,197.8125 L 28.09375,197.5 L 27.90625,197.03125 L 26.96875,197.40625 z M 48.21875,199.15625 L 47.375,200.25 L 47.34375,200.28125 L 46.5,201.3125 L 46.46875,201.34375 L 45.6875,202.21875 L 45.34375,202.59375 L 46.09375,203.25 L 46.40625,202.875 L 47.25,202 L 47.25,201.96875 L 48.125,200.90625 L 48.15625,200.90625 L 48.15625,200.875 L 49,199.78125 L 49.3125,199.375 L 48.53125,198.78125 L 48.21875,199.15625 z M 31.46875,204.21875 L 31.84375,204.5625 L 32.40625,205.0625 L 32.40625,205.09375 L 32.4375,205.125 L 33.65625,206 L 33.6875,206.03125 L 34.3125,206.40625 L 34.34375,206.40625 L 34.9375,206.71875 L 34.96875,206.71875 L 35.3125,206.875 L 35.75,207.0625 L 36.125,206.125 L 35.6875,205.9375 L 35.375,205.8125 L 35.34375,205.8125 L 34.8125,205.53125 L 34.78125,205.53125 L 34.25,205.21875 L 34.21875,205.1875 L 33.09375,204.34375 L 33.03125,204.3125 L 32.53125,203.8125 L 32.15625,203.46875 L 31.46875,204.21875 z M 42.75,204.78125 L 42.71875,204.78125 L 42.6875,204.8125 L 41.71875,205.40625 L 41.6875,205.4375 L 40.71875,205.875 L 40.65625,205.90625 L 39.6875,206.21875 L 39.625,206.21875 L 39.34375,206.28125 L 38.84375,206.34375 L 39,207.34375 L 39.5,207.25 L 39.84375,207.21875 L 39.875,207.1875 L 39.90625,207.1875 L 41.03125,206.84375 L 41.0625,206.8125 L 42.15625,206.3125 L 42.1875,206.3125 L 42.1875,206.28125 L 43.25,205.65625 L 43.25,205.625 L 43.28125,205.625 L 43.34375,205.5625 L 43.75,205.28125 L 43.15625,204.46875 L 42.75,204.78125 z "
       style="fill:#000000;fill-opacity:1;fill-rule:evenodd;stroke:none;stroke-width:1;stroke-linecap:square;stroke-linejoin:miter;stroke-miterlimit:4;stroke-dasharray:4.00000004, 4.00000004;stroke-dashoffset:0;stroke-opacity:1"
       id="path3488" />
    <path
       d="M 58.085936,104.12954 L 60.445517,91.543527 L 66.801877,102.65983 C 63.909674,101.20037 60.39128,101.80487 58.085936,104.12954 z "
       style="font-size:12px;fill-rule:evenodd;stroke-width:0.625;stroke-linejoin:round"
       id="path2257" />
  </g>
  <g
     id="g2284">
    <path
       d="M 199.90625,95.9375 L 199.53125,99.90625 L 199.5,100.40625 L 200.5,100.5 L 200.53125,100 L 200.90625,96.03125 L 200.9375,95.53125 L 199.9375,95.4375 L 199.90625,95.9375 z M 199.0625,103.875 L 198.8125,105.875 L 198.53125,107.8125 L 198.4375,108.3125 L 199.4375,108.46875 L 199.5,107.96875 L 199.8125,106 L 200.0625,104 L 200.125,103.5 L 199.125,103.375 L 199.0625,103.875 z M 197.84375,111.75 L 197.5625,113.21875 L 197.09375,115.40625 L 197.09375,115.4375 L 197.03125,115.625 L 196.90625,116.125 L 197.90625,116.34375 L 198,115.875 L 198.0625,115.65625 L 198.0625,115.625 L 198.53125,113.4375 L 198.53125,113.40625 L 198.84375,111.9375 L 198.9375,111.4375 L 197.9375,111.25 L 197.84375,111.75 z M 196.0625,119.5 L 194.9375,123.15625 L 194.9375,123.1875 L 194.90625,123.28125 L 194.71875,123.75 L 195.65625,124.09375 L 195.84375,123.625 L 195.875,123.5 L 195.90625,123.46875 L 197.03125,119.78125 L 197.15625,119.3125 L 196.21875,119 L 196.0625,119.5 z M 193.53125,127.03125 L 192.4375,129.59375 L 192.4375,129.625 L 191.9375,130.65625 L 191.71875,131.125 L 192.625,131.53125 L 192.84375,131.09375 L 193.34375,130.03125 L 193.34375,130 L 194.4375,127.40625 L 194.625,126.9375 L 193.71875,126.5625 L 193.53125,127.03125 z M 190.15625,134.21875 L 189.625,135.1875 L 189.625,135.21875 L 188.21875,137.6875 L 187.96875,138.125 L 188.84375,138.625 L 189.09375,138.1875 L 190.5,135.6875 L 190.53125,135.6875 L 191.03125,134.6875 L 191.28125,134.25 L 190.375,133.78125 L 190.15625,134.21875 z M 186.1875,141.125 L 184.125,144.5625 L 183.875,145 L 184.71875,145.5 L 185,145.09375 L 187.03125,141.65625 L 187.3125,141.21875 L 186.4375,140.71875 L 186.1875,141.125 z M 182.125,148.03125 L 181.6875,148.78125 L 181.65625,148.8125 L 180.1875,151.53125 L 179.9375,152 L 180.8125,152.46875 L 181.0625,152.03125 L 182.5625,149.28125 L 182.53125,149.28125 L 182.96875,148.53125 L 183.21875,148.09375 L 182.375,147.59375 L 182.125,148.03125 z M 178.40625,155.15625 L 177.6875,156.6875 L 176.78125,158.84375 L 176.59375,159.3125 L 177.53125,159.6875 L 177.71875,159.21875 L 178.625,157.09375 L 178.59375,157.09375 L 179.3125,155.5625 L 179.5,155.125 L 178.59375,154.71875 L 178.40625,155.15625 z M 175.40625,162.625 L 175,163.78125 L 174.28125,166.125 L 174.1875,166.46875 L 174.03125,166.9375 L 175,167.21875 L 175.125,166.71875 L 175.21875,166.40625 L 175.9375,164.09375 L 176.34375,162.9375 L 176.5,162.46875 L 175.5625,162.15625 L 175.40625,162.625 z M 173.15625,170.34375 L 173.0625,170.71875 L 172.59375,172.96875 L 172.59375,173 L 172.34375,174.28125 L 172.25,174.78125 L 173.21875,174.96875 L 173.3125,174.46875 L 173.5625,173.1875 L 174.0625,170.9375 L 174.03125,170.9375 L 174.125,170.59375 L 174.25,170.09375 L 173.28125,169.875 L 173.15625,170.34375 z M 171.71875,178.28125 L 171.53125,179.53125 L 171.3125,181.59375 L 171.3125,181.625 L 171.25,182.28125 L 171.21875,182.78125 L 172.21875,182.84375 L 172.25,182.34375 L 172.3125,181.71875 L 172.3125,181.6875 L 172.53125,179.65625 L 172.53125,179.625 L 172.6875,178.40625 L 172.75,177.90625 L 171.78125,177.78125 L 171.71875,178.28125 z M 171.03125,186.28125 L 170.96875,187.53125 L 170.96875,187.5625 L 170.96875,190.3125 L 170.96875,190.8125 L 171.96875,190.8125 L 171.96875,190.3125 L 171.96875,187.59375 L 171.96875,187.5625 L 172.03125,186.3125 L 172.03125,185.8125 L 171.0625,185.78125 L 171.03125,186.28125 z M 171.0625,193.8125 L 171.09375,194.3125 L 171.09375,194.5 L 171.09375,194.53125 L 171.34375,197.5 L 171.34375,197.53125 L 171.46875,198.34375 L 171.53125,198.84375 L 172.53125,198.71875 L 172.46875,198.21875 L 172.34375,197.4375 L 172.34375,197.40625 L 172.09375,194.46875 L 172.09375,194.4375 L 172.09375,194.28125 L 172.0625,193.78125 L 171.0625,193.8125 z M 191.78125,197.9375 L 190.4375,199.71875 L 189.34375,201.0625 L 189.03125,201.4375 L 189.8125,202.09375 L 190.125,201.6875 L 191.21875,200.34375 L 191.21875,200.3125 L 192.59375,198.53125 L 192.875,198.125 L 192.09375,197.53125 L 191.78125,197.9375 z M 172,201.8125 L 172.09375,202.3125 L 172.09375,202.40625 L 172.09375,202.4375 L 172.53125,204.21875 L 172.53125,204.25 L 172.9375,205.5625 L 172.96875,205.59375 L 172.96875,205.625 L 173.28125,206.25 L 173.46875,206.71875 L 174.375,206.28125 L 174.1875,205.84375 L 173.90625,205.25 L 173.875,205.1875 L 173.5,203.96875 L 173.5,203.9375 L 173.0625,202.21875 L 173.0625,202.1875 L 173.0625,202.15625 L 172.96875,201.65625 L 172,201.8125 z M 186.6875,203.96875 L 186.46875,204.1875 L 185.1875,205.375 L 183.9375,206.375 L 183.90625,206.40625 L 183.71875,206.53125 L 183.3125,206.8125 L 183.875,207.625 L 184.28125,207.34375 L 184.5,207.1875 L 184.53125,207.1875 L 184.53125,207.15625 L 185.8125,206.15625 L 185.84375,206.125 L 187.15625,204.9375 L 187.15625,204.90625 L 187.1875,204.90625 L 187.40625,204.6875 L 187.75,204.3125 L 187.03125,203.625 L 186.6875,203.96875 z M 175.90625,209 L 176.375,209.21875 L 176.65625,209.3125 L 176.65625,209.34375 L 176.6875,209.34375 L 177.1875,209.5 L 177.21875,209.5 L 177.25,209.5 L 177.75,209.59375 L 177.78125,209.59375 L 177.8125,209.59375 L 178.34375,209.625 L 178.375,209.625 L 178.90625,209.625 L 178.9375,209.625 L 178.96875,209.625 L 179.5,209.5625 L 179.53125,209.5625 L 179.5625,209.5625 L 180.59375,209.28125 L 181.09375,209.15625 L 180.84375,208.1875 L 180.375,208.3125 L 179.40625,208.5625 L 179.34375,208.5625 L 178.90625,208.625 L 178.84375,208.625 L 178.34375,208.625 L 178.34375,208.65625 L 177.9375,208.59375 L 177.875,208.59375 L 177.4375,208.5 L 177.4375,208.53125 L 177.03125,208.40625 L 176.96875,208.375 L 176.78125,208.28125 L 176.3125,208.09375 L 175.90625,209 z "
       style="fill:#000000;fill-opacity:1;fill-rule:evenodd;stroke:none;stroke-width:1;stroke-linecap:square;stroke-linejoin:miter;stroke-miterlimit:4;stroke-dasharray:4.00000004, 4.00000004;stroke-dashoffset:0;stroke-opacity:1"
       id="path3490" />
    <path
       d="M 195.34377,104.37821 L 200.65691,92.727199 L 204.1576,105.04469 C 201.70054,102.93336 198.13994,102.67521 195.34377,104.37821 z "
       style="font-size:12px;fill-rule:evenodd;stroke-width:0.625;stroke-linejoin:round"
       id="path2290" />
  </g>
</svg>
